<svg width="48.000000" height="48.000000" viewBox="0 0 48 48" fill="none" xmlns="http://www.w3.org/2000/svg" xmlns:xlink="http://www.w3.org/1999/xlink">
	<desc>
			Created with Pixso.
	</desc>
	<defs>
		<clipPath id="clip0_61">
			<rect id="dollar-symbol 1" width="48.000000" height="48.000000" fill="white" fill-opacity="0"/>
		</clipPath>
	</defs>
	<rect id="dollar-symbol 1" width="48.000000" height="48.000000" fill="#FFFFFF" fill-opacity="0"/>
	<g clip-path="url(#clip0_61)">
		<path id="Vector" d="M24 47.9999C37.2341 47.9999 48 37.234 48 23.9999C48.0058 20.8256 47.3782 17.6821 46.1531 14.7536C46.0244 14.4379 45.7357 14.215 45.3978 14.171C45.0593 14.1265 44.723 14.2668 44.5169 14.5386C44.3114 14.8108 44.2669 15.1725 44.4015 15.4861C45.5297 18.1826 46.1075 21.0772 46.1017 23.9999C46.1017 36.1869 36.187 46.1016 24 46.1016C11.813 46.1016 1.89832 36.1869 1.89832 23.9999C1.89832 11.8129 11.813 1.89819 24 1.89819C26.4767 1.89502 28.9364 2.3092 31.2754 3.12384C31.5959 3.23773 31.9534 3.17096 32.2113 2.94904C32.4693 2.72766 32.589 2.3844 32.5249 2.05023C32.4608 1.716 32.2225 1.44165 31.9004 1.33148C29.3602 0.446899 26.6896 -0.0032959 24 -0.00012207C10.7659 -0.00012207 0 10.7658 0 23.9999C0 37.234 10.7659 47.9999 24 47.9999Z" fill="#156963" fill-opacity="1.000000" fill-rule="nonzero"/>
		<path id="Vector" d="M33.4094 6.17267C33.0387 5.80194 32.4375 5.80194 32.0667 6.17267C31.6965 6.54346 31.6965 7.14459 32.0667 7.51538L36.4836 11.9323C36.8485 12.2972 37.4375 12.3035 37.8104 11.9471L45.5969 4.51007C45.8459 4.27649 45.9502 3.92743 45.8708 3.59589C45.7908 3.26434 45.5392 3.00055 45.2113 2.90576C44.884 2.81091 44.5307 2.89941 44.286 3.13721L37.17 9.93384L33.4094 6.17267Z" fill="#156963" fill-opacity="1.000000" fill-rule="nonzero"/>
		<path id="Vector" d="M24 14.8194C26.2405 14.822 28.0562 16.6377 28.0588 18.8782C28.0588 19.4025 28.4836 19.8273 29.008 19.8273C29.5323 19.8273 29.9571 19.4025 29.9571 18.8782C29.9534 15.9561 27.8332 13.4666 24.9492 12.9974L24.9492 11.1187C24.9492 10.5943 24.5244 10.1695 24 10.1695C23.4756 10.1695 23.0509 10.5943 23.0509 11.1187L23.0509 12.9974C19.9862 13.4937 17.8162 16.2595 18.0646 19.3544C18.3125 22.4486 20.8957 24.8337 24 24.8348C26.232 24.8348 28.0456 26.6372 28.0583 28.8697C28.0715 31.1017 26.2791 32.9253 24.0471 32.9513C24.0312 32.9502 24.0159 32.9486 24 32.9486C23.9841 32.9486 23.9688 32.9502 23.9529 32.9513C21.731 32.9232 19.9439 31.1155 19.9412 28.8936C19.9412 28.3692 19.5164 27.9444 18.9921 27.9444C18.4677 27.9444 18.0429 28.3692 18.0429 28.8936C18.0466 31.8157 20.1663 34.3051 23.0509 34.7744L23.0509 36.8813C23.0509 37.4057 23.4756 37.8305 24 37.8305C24.5244 37.8305 24.9492 37.4057 24.9492 36.8813L24.9492 34.7744C28.0143 34.2797 30.1854 31.5127 29.937 28.4179C29.6891 25.3231 27.1049 22.9375 24 22.9375C22.5445 22.9454 21.1955 22.1737 20.4656 20.9147C19.7352 19.6552 19.7352 18.1017 20.4656 16.8422C21.1955 15.5831 22.5445 14.8115 24 14.8199L24 14.8194Z" fill="#156963" fill-opacity="1.000000" fill-rule="nonzero"/>
	</g>
</svg>
