<svg width="48.000000" height="48.000000" viewBox="0 0 48 48" fill="none" xmlns="http://www.w3.org/2000/svg" xmlns:xlink="http://www.w3.org/1999/xlink">
	<desc>
			Created with Pixso.
	</desc>
	<defs>
		<clipPath id="clip0_35">
			<rect id="headphones 1" width="48.000000" height="48.000000" fill="white" fill-opacity="0"/>
		</clipPath>
	</defs>
	<rect id="headphones 1" width="48.000000" height="48.000000" fill="#FFFFFF" fill-opacity="0"/>
	<g clip-path="url(#clip0_35)">
		<path id="Vector" d="M24 0C12.3689 0 2.90625 9.46265 2.90625 21.0938C2.90625 22.3827 2.90625 32.3539 2.90625 32.5312C2.90625 34.8575 4.79877 36.75 7.125 36.75L8.77313 36.75C9.35364 38.3867 10.9167 39.5625 12.75 39.5625C15.0762 39.5625 16.9688 37.67 16.9688 35.3438L16.9688 23.9062C16.9688 21.58 15.0762 19.6875 12.75 19.6875C10.9167 19.6875 9.35364 20.8633 8.77313 22.5L7.125 22.5C6.63196 22.5 6.15891 22.5858 5.71875 22.7419L5.71875 21.0938C5.71875 11.0135 13.9197 2.8125 24 2.8125C34.0803 2.8125 42.2812 11.0135 42.2812 21.0938L42.2812 22.7419C41.8411 22.5858 41.368 22.5 40.875 22.5L39.2269 22.5C38.6464 20.8633 37.0833 19.6875 35.25 19.6875C32.9238 19.6875 31.0312 21.58 31.0312 23.9062L31.0312 35.3438C31.0312 37.67 32.9238 39.5625 35.25 39.5625C35.6757 39.5625 36.0867 39.4985 36.4745 39.3807C35.9484 41.1115 34.338 42.375 32.4375 42.375L27.9769 42.375C27.3964 40.7383 25.8333 39.5625 24 39.5625C21.6738 39.5625 19.7812 41.455 19.7812 43.7812C19.7812 46.1075 21.6738 48 24 48C25.8333 48 27.3964 46.8242 27.9769 45.1875L32.4375 45.1875C36.3145 45.1875 39.4688 42.0333 39.4688 38.1562L39.4688 36.75L40.875 36.75C43.2012 36.75 45.0938 34.8575 45.0938 32.5312C45.0938 32.3565 45.0938 22.3817 45.0938 21.0938C45.0938 9.46265 35.6311 0 24 0ZM11.3438 23.9062C11.3438 23.1309 11.9746 22.5 12.75 22.5C13.5254 22.5 14.1562 23.1309 14.1562 23.9062L14.1562 35.3438C14.1562 36.1191 13.5254 36.75 12.75 36.75C11.9746 36.75 11.3438 36.1191 11.3438 35.3438L11.3438 23.9062ZM7.125 25.3125L8.53125 25.3125L8.53125 33.9375L7.125 33.9375C6.34958 33.9375 5.71875 33.3066 5.71875 32.5312L5.71875 26.7188C5.71875 25.9434 6.34958 25.3125 7.125 25.3125ZM24 45.1875C23.2246 45.1875 22.5938 44.5566 22.5938 43.7812C22.5938 43.0059 23.2246 42.375 24 42.375C24.7754 42.375 25.4062 43.0059 25.4062 43.7812C25.4062 44.5566 24.7754 45.1875 24 45.1875ZM36.6562 35.3438C36.6562 36.1191 36.0254 36.75 35.25 36.75C34.4746 36.75 33.8438 36.1191 33.8438 35.3438L33.8438 23.9062C33.8438 23.1309 34.4746 22.5 35.25 22.5C36.0254 22.5 36.6562 23.1309 36.6562 23.9062L36.6562 35.3438ZM42.2812 32.5312C42.2812 33.3066 41.6504 33.9375 40.875 33.9375L39.4688 33.9375L39.4688 25.3125L40.875 25.3125C41.6504 25.3125 42.2812 25.9434 42.2812 26.7188L42.2812 32.5312Z" fill="#156963" fill-opacity="1.000000" fill-rule="nonzero"/>
	</g>
</svg>
