<svg width="48.000000" height="48.000000" viewBox="0 0 48 48" fill="none" xmlns="http://www.w3.org/2000/svg" xmlns:xlink="http://www.w3.org/1999/xlink">
	<desc>
			Created with Pixso.
	</desc>
	<defs>
		<clipPath id="clip0_45">
			<rect id="plant 1" width="48.000000" height="48.000000" fill="white" fill-opacity="0"/>
		</clipPath>
	</defs>
	<rect id="plant 1" width="48.000000" height="48.000000" fill="#FFFFFF" fill-opacity="0"/>
	<g clip-path="url(#clip0_45)">
		<path id="Vector" d="M19.2976 6.88196C15.1042 2.69073 6.89824 2.20471 1.0898 2.20471C0.488251 2.20471 0 2.69287 0 3.29443C0 9.10284 0.483858 17.3088 4.67726 21.5023C6.44708 23.2722 9.16061 24.0633 11.8501 24.0633C14.7729 24.0633 17.6695 23.1283 19.2976 21.5002C22.4209 18.3769 22.9942 10.5763 19.2976 6.88196ZM17.7567 19.9614C15.4246 22.2913 8.94922 22.6901 6.22047 19.9614C2.83562 16.5766 2.24928 9.70013 2.18604 4.39075C7.4954 4.45398 14.3719 5.04022 17.7566 8.42511C20.4855 11.1538 20.0866 17.6315 17.7567 19.9614Z" fill="#156963" fill-opacity="1.000000" fill-rule="nonzero"/>
		<path id="Vector" d="M46.9105 6.51575C41.102 6.51575 32.896 6.99963 28.7025 11.193C25.0061 14.8873 25.5792 22.6879 28.7025 25.8112C30.3307 27.4372 33.2251 28.3722 36.1479 28.3722C38.8374 28.3722 41.5488 27.5832 43.3229 25.8135C47.5141 21.6201 48.0002 13.4141 48.0002 7.60553C48.0003 7.00403 47.512 6.51575 46.9105 6.51575ZM41.7776 24.2703C39.0489 26.999 32.5713 26.6002 30.2414 24.2703C27.9115 21.9404 27.5126 15.4627 30.2414 12.7339C33.6262 9.34912 40.5026 8.76288 45.812 8.69965C45.7488 14.0112 45.1625 20.8876 41.7776 24.2703Z" fill="#156963" fill-opacity="1.000000" fill-rule="nonzero"/>
		<path id="Vector" d="M39.0397 15.9489C38.7825 15.4017 38.0458 15.2144 37.5031 15.4672C29.1446 19.3969 25.0383 26.2493 23.1726 33.2936C20.8645 18.3157 14.1885 13.7496 11.3573 11.8121C11.0042 11.5701 10.7296 11.3936 10.5771 11.2432C10.1521 10.8182 9.46111 10.8182 9.0361 11.2432C8.6111 11.6682 8.6111 12.3591 9.0361 12.7842C9.25188 12.9978 9.62458 13.2659 10.1281 13.6102C13.3189 15.7919 21.7951 21.5917 21.7951 44.7057C21.7951 45.3073 22.2833 45.7955 22.8849 45.7955C23.4865 45.7955 23.9747 45.3073 23.9747 44.7079C23.9747 35.3687 26.4834 23.0565 38.4316 17.4419C38.4316 17.4398 38.6081 17.3569 38.6081 17.3569C39.1508 17.0997 39.2968 16.4937 39.0397 15.9489Z" fill="#156963" fill-opacity="1.000000" fill-rule="nonzero"/>
	</g>
</svg>
