<svg width="36.000000" height="36.000000" viewBox="0 0 36 36" fill="none" xmlns="http://www.w3.org/2000/svg" xmlns:xlink="http://www.w3.org/1999/xlink">
	<desc>
			Created with Pixso.
	</desc>
	<defs/>
	<path id="Polygon 1" d="M15.5 1.44336L4.91156 7.55664C3.36456 8.44983 2.41156 10.1005 2.41156 11.8867L2.41156 24.1133C2.41156 25.8995 3.36456 27.5502 4.91156 28.4434L15.5 34.5566C17.047 35.4498 18.953 35.4498 20.5 34.5566L31.0884 28.4434C32.6354 27.5502 33.5884 25.8995 33.5884 24.1133L33.5884 11.8867C33.5884 10.1005 32.6354 8.44983 31.0884 7.55664L20.5 1.44336C18.953 0.550171 17.047 0.550171 15.5 1.44336Z" fill="#156963" fill-opacity="1.000000" fill-rule="evenodd"/>
	<path id="P" d="M16.2984 22.0732C15.9624 22.0732 15.6958 21.9756 15.4985 21.7803C15.3032 21.583 15.2056 21.3164 15.2056 20.9805L15.2056 14.5586C15.2056 14.2324 15.2935 13.9814 15.4692 13.8057C15.645 13.6279 15.897 13.5391 16.2251 13.5391L19.2984 13.5391C20.2339 13.5391 20.9614 13.7773 21.481 14.2539C22.0025 14.7305 22.2632 15.3926 22.2632 16.2402C22.2632 17.0801 22.0005 17.7402 21.4751 18.2207C20.9517 18.7012 20.2261 18.9414 19.2984 18.9414L17.4146 18.9414L17.4146 20.9805C17.4146 21.3164 17.314 21.583 17.1128 21.7803C16.9136 21.9756 16.6421 22.0732 16.2984 22.0732ZM18.9966 17.2832C19.4048 17.2832 19.7066 17.1992 19.9019 17.0312C20.0991 16.8633 20.1978 16.6035 20.1978 16.252C20.1978 15.5566 19.7974 15.209 18.9966 15.209L17.4146 15.209L17.4146 17.2832L18.9966 17.2832Z" fill="#FFFFFF" fill-opacity="1.000000" fill-rule="evenodd"/>
</svg>
